	<svg xmlns="http://www.w3.org/2000/svg" xmlns:xlink="http://www.w3.org/1999/xlink" version="1.1" id="Layer_1" x="0px" y="0px" height="550px" width="665px" style="&#10;    background: rgb(47 52 61);&#10;">

<path fill="none" opacity="1.000000" stroke="#fff" stroke-linecap="round" stroke-linejoin="round" stroke-width="24.000000" d=" M213.500000,124.500000   C215.302826,134.666672 214.004303,144.835587 213.486328,154.999298   C213.052963,163.502701 212.386536,171.995102 212.019562,180.500839   C210.402252,217.987869 211.458160,255.503220 210.866745,292.997894   C210.585403,310.835144 211.226044,328.689728 210.385406,346.494598   C209.236374,370.832153 209.696732,395.164764 209.493622,419.499939   C209.455795,424.031097 209.192291,428.621246 210.570480,432.977692   C211.503799,435.927917 210.380585,438.661774 210.477570,441.500763   C211.314301,465.993378 211.708939,490.499146 212.368240,514.990112   C212.533264,521.120605 210.741516,528.299316 215.421600,534.063660   C215.844727,534.584778 215.166672,536.000000 215.000000,537.000000  "/>
<path fill="none" opacity="1.000000" stroke="#fff" stroke-linecap="round" stroke-linejoin="round" stroke-width="24.000000" d=" M1460.000000,188.500000   C1459.364014,182.348663 1464.218994,178.840683 1467.102539,174.569260   C1478.610107,157.523529 1488.905273,139.859894 1495.932861,120.475647   C1498.354736,113.795258 1500.836060,106.953384 1501.837891,99.976715   C1504.487427,81.526245 1497.507568,61.483604 1473.512451,56.934402   C1456.652100,53.737862 1440.464233,56.455814 1424.515625,61.549080   C1405.100342,67.749474 1386.498169,75.868721 1368.459351,85.423332   C1345.910156,97.367058 1324.284180,110.741539 1303.515259,125.521416   C1291.208862,134.279022 1279.003540,143.164383 1267.465088,152.958862   C1251.132080,166.823212 1233.725342,179.390854 1217.954712,193.950943   C1214.474976,197.163635 1209.788208,199.116089 1207.994263,203.997894   C1207.516113,205.299469 1206.543091,206.533005 1207.017822,207.994202   C1210.226196,217.868240 1207.761963,228.011078 1208.348755,238.008881   C1208.405762,238.979507 1208.038696,240.346420 1208.032959,241.500168   C1207.827026,283.166626 1207.238892,324.837708 1207.665283,366.498322   C1207.909302,390.329468 1208.414429,414.162354 1208.546265,437.999756   C1208.603516,448.334625 1209.177856,458.666321 1209.488037,469.000366   C1209.535522,470.580292 1209.638916,472.117279 1210.500000,473.500000  " style="&#10;    /* left: -226px; */&#10;    transform: translate(-850px, 0px);&#10;"/>


<path fill="none" opacity="1.000000" stroke="#fff" stroke-linecap="round" stroke-linejoin="round" stroke-width="20.000000" d=" M1329.500000,308.500000   C1335.040649,312.414642 1341.081055,310.436432 1347.000488,310.006470   C1362.437500,308.885193 1377.865723,307.541199 1393.009644,312.470520   C1405.138184,316.418335 1411.184082,326.243103 1408.171631,340.536194   C1404.490479,358.002777 1393.983276,371.044067 1382.435547,383.439911   C1355.908936,411.914581 1323.620972,432.504883 1288.901855,449.297180   C1277.629883,454.748962 1265.546997,458.684021 1253.604980,462.804382   C1240.276123,467.403320 1226.700928,470.166107 1213.035889,473.163635   C1191.656860,477.853424 1170.732788,476.992615 1150.030273,470.404877   C1143.975586,468.478210 1138.090210,465.768280 1133.494385,461.005463   C1123.184082,450.320831 1123.386475,438.637909 1131.135498,425.580414   C1138.241577,413.606567 1147.685425,403.438568 1158.404053,394.386444   C1163.704346,389.910278 1169.928345,386.379028 1174.000000,380.500000  " style="&#10;    transform: translate(-850px, 0px);&#10;"/>



<path fill="none" opacity="1.000000" stroke="#fff" stroke-linecap="round" stroke-linejoin="round" stroke-width="24.000000" d=" M375.500000,103.000000   C381.137604,103.638123 385.744659,101.653053 389.644043,97.474899   C388.447601,93.925026 385.851471,93.242180 382.497833,93.468025   C372.436401,94.145607 362.470551,95.385124 352.472351,96.805367   C333.900055,99.443588 315.516174,103.255753 296.955170,105.652954   C288.599518,106.732101 280.812805,109.626122 272.517975,110.646194   C264.435242,111.640175 256.498383,113.825607 248.500381,115.501846   C236.744232,117.965721 225.187103,121.718864 213.444901,123.668045   C193.744324,126.938316 174.615433,132.312790 155.566193,137.732651   C115.672234,149.083206 76.237480,162.006287 38.523357,179.550201   C27.843004,184.518509 16.441557,187.953857 6.501259,194.501907   C4.914814,195.546982 3.156322,194.729889 1.500000,195.000000  "/>






<path fill="none" opacity="1.000000" stroke="#fff" stroke-linecap="round" stroke-linejoin="round" stroke-width="24.000000" d=" M1475.500000,193.000000   C1470.837036,192.733505 1466.153687,192.063156 1462.064209,189.879837   C1459.182129,188.341232 1457.224976,189.224976 1455.556763,191.051865   C1452.684570,194.197586 1450.218018,197.709274 1447.491821,200.993210   C1428.152344,224.289719 1407.339111,246.087585 1384.085815,265.602295   C1368.317627,278.835388 1351.945435,291.115417 1334.501221,302.001923   C1333.991577,302.319916 1333.291504,302.550507 1333.031372,303.017456   C1329.414673,309.510040 1322.579956,310.447510 1316.481567,312.443878   C1306.514404,315.706818 1296.745850,319.612915 1286.493286,321.970886   C1285.878418,322.112305 1285.166626,321.833313 1284.500000,321.750000  " style="&#10;    transform: translate(-850px, 0px);&#10;"/>





<path fill="none" opacity="1.000000" stroke="#fff" stroke-linecap="round" stroke-linejoin="round" stroke-width="22.000000" d=" M1206.500000,207.000000   C1199.979614,208.850220 1196.235840,214.471909 1191.635010,218.648727   C1176.278687,232.589584 1161.500000,247.166656 1146.500000,261.500000  " style="&#10;    transform: translate(-850px, 0px);&#10;"/>
<path fill="none" opacity="1.000000" stroke="#fff" stroke-linecap="round" stroke-linejoin="round" stroke-width="24.000000" d=" M1209.500000,475.500000   C1210.182251,477.269897 1210.524780,479.059998 1210.540771,480.999664   C1210.616089,490.167084 1210.733398,499.336945 1211.062134,508.497772   C1211.158325,511.178925 1212.000000,513.833313 1212.500000,516.500000  " style="&#10;    transform: translate(-850px, 0px);&#10;"/>


</svg>