<svg version="1.1" id="Layer_1" xmlns="http://www.w3.org/2000/svg" xmlns:xlink="http://www.w3.org/1999/xlink" x="0px" y="0px"
	 width="100%" viewBox="0 0 1906 586" enable-background="new 0 0 1906 586" xml:space="preserve">
<path fill="none" opacity="1.000000" stroke="#000000" stroke-linecap="round" stroke-linejoin="round" stroke-width="8.000000"
	d="
M1728.000000,251.500000 
	C1731.723145,251.793839 1734.393311,249.622879 1736.985596,247.482590 
	C1761.762329,227.026596 1785.804688,205.753525 1807.453735,181.957916 
	C1822.354492,165.579666 1835.838623,148.104080 1845.481934,127.991341 
	C1851.164551,116.138947 1855.383301,103.802299 1855.445435,90.499748 
	C1855.519897,74.549576 1850.838989,60.323265 1838.471680,49.532524 
	C1825.098389,37.864014 1811.789673,37.164295 1797.551514,48.564400 
	C1780.855835,61.932106 1770.576660,80.192924 1761.614624,99.054451 
	C1749.821777,123.873436 1742.048340,150.108063 1736.502319,177.000473 
	C1732.817749,194.865936 1729.348999,212.754135 1727.920410,230.993774 
	C1727.383789,237.844559 1726.137695,244.627609 1727.471313,251.505554 
	C1727.527588,251.795670 1727.184204,252.176895 1726.997314,252.498428 
	C1723.839233,257.932404 1725.640625,263.806519 1725.512695,269.500275 
	C1724.895874,296.947632 1725.754150,324.329071 1730.046509,351.492645 
	C1732.296143,365.729858 1734.960327,379.902039 1737.651123,394.066284 
	C1739.085449,401.617462 1742.400513,408.502228 1743.438354,416.008514 
	C1744.100220,420.796448 1744.166626,425.666656 1744.500000,430.500000 
"/>
<path fill="none" opacity="1.000000" stroke="#000000" stroke-linecap="round" stroke-linejoin="round" stroke-width="8.000000"
	d="
M213.500000,124.500000 
	C215.302826,134.666672 214.004303,144.835587 213.486328,154.999298 
	C213.052963,163.502701 212.386536,171.995102 212.019562,180.500839 
	C210.402252,217.987869 211.458160,255.503220 210.866745,292.997894 
	C210.585403,310.835144 211.226044,328.689728 210.385406,346.494598 
	C209.236374,370.832153 209.696732,395.164764 209.493622,419.499939 
	C209.455795,424.031097 209.192291,428.621246 210.570480,432.977692 
	C211.503799,435.927917 210.380585,438.661774 210.477570,441.500763 
	C211.314301,465.993378 211.708939,490.499146 212.368240,514.990112 
	C212.533264,521.120605 210.741516,528.299316 215.421600,534.063660 
	C215.844727,534.584778 215.166672,536.000000 215.000000,537.000000 
"/>
<path fill="none" opacity="1.000000" stroke="#000000" stroke-linecap="round" stroke-linejoin="round" stroke-width="8.000000"
	d="
M1460.000000,188.500000 
	C1459.364014,182.348663 1464.218994,178.840683 1467.102539,174.569260 
	C1478.610107,157.523529 1488.905273,139.859894 1495.932861,120.475647 
	C1498.354736,113.795258 1500.836060,106.953384 1501.837891,99.976715 
	C1504.487427,81.526245 1497.507568,61.483604 1473.512451,56.934402 
	C1456.652100,53.737862 1440.464233,56.455814 1424.515625,61.549080 
	C1405.100342,67.749474 1386.498169,75.868721 1368.459351,85.423332 
	C1345.910156,97.367058 1324.284180,110.741539 1303.515259,125.521416 
	C1291.208862,134.279022 1279.003540,143.164383 1267.465088,152.958862 
	C1251.132080,166.823212 1233.725342,179.390854 1217.954712,193.950943 
	C1214.474976,197.163635 1209.788208,199.116089 1207.994263,203.997894 
	C1207.516113,205.299469 1206.543091,206.533005 1207.017822,207.994202 
	C1210.226196,217.868240 1207.761963,228.011078 1208.348755,238.008881 
	C1208.405762,238.979507 1208.038696,240.346420 1208.032959,241.500168 
	C1207.827026,283.166626 1207.238892,324.837708 1207.665283,366.498322 
	C1207.909302,390.329468 1208.414429,414.162354 1208.546265,437.999756 
	C1208.603516,448.334625 1209.177856,458.666321 1209.488037,469.000366 
	C1209.535522,470.580292 1209.638916,472.117279 1210.500000,473.500000 
"/>
<path fill="none" opacity="1.000000" stroke="#000000" stroke-linecap="round" stroke-linejoin="round" stroke-width="9.000000"
	d="
M1712.500000,486.000000 
	C1709.636597,486.509491 1707.845581,484.922302 1705.966553,483.033295 
	C1697.750488,474.774048 1692.851807,464.539368 1688.523682,453.990295 
	C1680.249023,433.822021 1675.675171,412.579590 1670.429199,391.517639 
	C1666.232544,374.668335 1663.694702,357.517792 1660.662231,340.471161 
	C1658.197021,326.613220 1657.169189,312.499695 1655.498779,298.500153 
	C1654.504517,290.166138 1654.394043,281.581573 1652.146240,273.599670 
	C1650.907837,269.202148 1650.397339,265.227722 1651.071045,261.011353 
	C1651.755005,256.730865 1651.088013,251.780731 1656.417725,249.321732 
	C1657.439819,248.850174 1658.321777,246.617722 1659.126221,245.065384 
	C1672.020874,220.182343 1683.964722,194.901703 1693.557983,168.521088 
	C1700.914551,148.291656 1707.675415,127.901184 1710.389038,106.485939 
	C1712.089111,93.070190 1713.313354,79.435860 1707.463013,66.516777 
	C1704.094116,59.077507 1699.573364,55.967949 1693.516235,57.088078 
	C1689.088989,57.906811 1685.471558,60.433151 1682.462524,63.968132 
	C1674.066772,73.831596 1669.175171,85.450615 1664.978149,97.492378 
	C1658.299927,116.652855 1654.332397,136.359985 1651.898315,156.487701 
	C1649.906494,172.957779 1648.898926,189.431305 1648.989380,206.000061 
	C1649.046631,216.499741 1648.855835,227.002853 1649.063477,237.498749 
	C1649.160767,242.419922 1649.596436,247.424820 1653.000000,251.500000 
"/>
<path fill="none" opacity="1.000000" stroke="#000000" stroke-linecap="round" stroke-linejoin="round" stroke-width="7.000000"
	d="
M286.500000,109.000000 
	C287.449921,112.101761 287.513947,115.277794 287.531158,118.499832 
	C287.635254,138.000168 287.510590,157.509583 288.089203,176.997345 
	C288.688293,197.175919 290.375183,217.324188 290.866425,237.503250 
	C291.186951,250.670929 291.599091,263.835632 292.021088,276.999329 
	C292.603607,295.168671 292.979401,313.355621 294.121002,331.492371 
	C294.918304,344.158630 295.471741,356.824890 296.094391,369.495361 
	C296.708771,381.996338 297.643066,394.480072 298.209839,406.990509 
	C298.435425,411.970398 298.704773,416.998505 299.065399,421.995270 
	C299.316498,425.474487 300.729187,428.635406 303.500000,431.000000 
"/>
<path fill="none" opacity="1.000000" stroke="#000000" stroke-linecap="round" stroke-linejoin="round" stroke-width="6.000000"
	d="
M1329.500000,308.500000 
	C1335.040649,312.414642 1341.081055,310.436432 1347.000488,310.006470 
	C1362.437500,308.885193 1377.865723,307.541199 1393.009644,312.470520 
	C1405.138184,316.418335 1411.184082,326.243103 1408.171631,340.536194 
	C1404.490479,358.002777 1393.983276,371.044067 1382.435547,383.439911 
	C1355.908936,411.914581 1323.620972,432.504883 1288.901855,449.297180 
	C1277.629883,454.748962 1265.546997,458.684021 1253.604980,462.804382 
	C1240.276123,467.403320 1226.700928,470.166107 1213.035889,473.163635 
	C1191.656860,477.853424 1170.732788,476.992615 1150.030273,470.404877 
	C1143.975586,468.478210 1138.090210,465.768280 1133.494385,461.005463 
	C1123.184082,450.320831 1123.386475,438.637909 1131.135498,425.580414 
	C1138.241577,413.606567 1147.685425,403.438568 1158.404053,394.386444 
	C1163.704346,389.910278 1169.928345,386.379028 1174.000000,380.500000 
"/>
<path fill="none" opacity="1.000000" stroke="#000000" stroke-linecap="round" stroke-linejoin="round" stroke-width="8.000000"
	d="
M818.000000,275.000000 
	C821.390869,268.500000 821.325684,262.035187 818.022217,255.488800 
	C815.406494,250.305466 807.631897,245.862869 799.509033,248.033844 
	C785.813416,251.694214 774.989319,259.718903 765.984436,270.486969 
	C755.298645,283.265198 745.896851,296.932678 736.853699,310.905304 
	C734.231750,314.956482 731.874634,319.787445 726.050842,321.208405 
	C723.741028,321.772034 721.945618,324.611145 720.009155,326.509369 
	C710.115723,336.207367 698.895142,343.258667 685.026611,346.128601 
	C674.999084,348.203644 667.062744,344.402954 659.559692,338.918365 
	C655.393860,335.873260 651.860291,331.969879 647.993774,328.506958 
	C641.935120,323.080719 635.196899,326.361206 633.552490,332.015259 
	C631.340637,339.620300 629.425903,347.314972 627.518555,355.004608 
	C625.103088,364.742706 622.684692,374.478119 619.460144,383.986481 
	C619.087158,385.086090 618.173889,386.004913 617.498779,386.999176 
	C614.643066,391.204620 611.537415,391.250641 608.517273,386.987762 
	C604.925293,381.917755 604.698547,375.749359 603.607788,369.979614 
	C601.257202,357.545898 599.841858,344.932526 597.392273,332.521271 
	C595.417847,322.517578 594.448547,312.331696 591.629211,302.463074 
	C590.577026,298.779938 589.043396,295.367462 587.392944,292.053314 
	C585.021912,287.291901 580.329102,287.146057 577.031189,291.523529 
	C572.259827,297.856873 569.410522,305.228821 566.540405,312.515930 
	C556.752075,337.368195 549.627197,363.050446 543.674988,389.040070 
	C542.629089,393.606567 541.584656,398.282837 540.956238,402.994171 
	C540.476624,406.590240 538.883423,409.669647 535.500000,411.500000 
"/>
<path fill="none" opacity="1.000000" stroke="#000000" stroke-linecap="round" stroke-linejoin="round" stroke-width="9.000000"
	d="
M1452.500000,429.500000 
	C1449.387085,429.787415 1447.318848,431.486816 1445.458862,433.969208 
	C1427.318970,458.178070 1413.772217,484.800873 1404.654907,513.549133 
	C1400.615967,526.284973 1398.710205,539.660889 1397.672974,553.013428 
	C1397.385620,556.713501 1398.129150,560.699036 1398.678101,564.474121 
	C1399.033081,566.915222 1399.356445,570.443420 1403.005981,570.957458 
	C1406.130859,571.397644 1408.322388,569.674438 1410.557617,567.560974 
	C1416.067505,562.351562 1419.896118,555.900635 1423.373047,549.431763 
	C1434.244141,529.206299 1440.580811,507.357574 1445.609375,485.024628 
	C1448.669067,471.435303 1450.689331,457.689270 1452.775757,443.965912 
	C1453.452148,439.516388 1454.695923,434.898254 1453.309448,429.913910 
	C1452.465576,426.880524 1454.196289,422.797302 1455.598877,419.542633 
	C1458.446777,412.934387 1456.387695,406.153961 1456.848511,399.489532 
	C1457.826294,385.348480 1458.677856,371.186127 1459.246216,357.009857 
	C1459.452026,351.872375 1459.503418,346.646271 1460.050049,341.505310 
	C1461.129639,331.350647 1460.990967,321.177521 1461.005127,311.000000 
	C1461.008179,308.745819 1461.084106,306.490234 1459.750000,304.500000 
"/>
<path fill="none" opacity="1.000000" stroke="#000000" stroke-linecap="round" stroke-linejoin="round" stroke-width="7.000000"
	d="
M797.500000,286.000000 
	C797.362671,287.857880 797.725342,289.537903 798.989685,291.008850 
	C801.651855,294.106049 801.220154,297.912170 800.948120,301.496063 
	C799.659241,318.475922 798.114746,335.495056 799.187256,352.488190 
	C799.933838,364.317413 800.203796,376.397461 804.532471,387.737610 
	C805.993896,391.565948 807.481812,395.461823 809.583557,398.949646 
	C812.629028,404.003723 820.313477,405.850372 826.004883,403.511841 
	C831.573975,401.223511 836.273987,397.736237 840.509277,393.509277 
	C853.781128,380.263458 864.509888,365.181396 872.979065,348.489380 
	C877.430542,339.715973 881.610291,330.804840 886.048096,322.024323 
	C886.923157,320.293091 886.984497,318.383545 886.396667,317.045380 
	C882.139954,307.355377 885.596191,298.444366 889.629211,290.062164 
	C898.404114,271.824677 912.974243,258.827728 930.037048,248.561584 
	C939.550781,242.837494 949.574463,238.093079 960.494019,235.475021 
	C972.215698,232.664658 983.475830,232.490707 993.493469,240.508179 
	C999.971619,245.692841 1001.509766,252.810532 1000.441711,260.491882 
	C997.596619,280.953125 985.794189,296.153320 971.000000,309.500000 
"/>
<path fill="none" opacity="1.000000" stroke="#000000" stroke-linecap="round" stroke-linejoin="round" stroke-width="8.000000"
	d="
M375.500000,103.000000 
	C381.137604,103.638123 385.744659,101.653053 389.644043,97.474899 
	C388.447601,93.925026 385.851471,93.242180 382.497833,93.468025 
	C372.436401,94.145607 362.470551,95.385124 352.472351,96.805367 
	C333.900055,99.443588 315.516174,103.255753 296.955170,105.652954 
	C288.599518,106.732101 280.812805,109.626122 272.517975,110.646194 
	C264.435242,111.640175 256.498383,113.825607 248.500381,115.501846 
	C236.744232,117.965721 225.187103,121.718864 213.444901,123.668045 
	C193.744324,126.938316 174.615433,132.312790 155.566193,137.732651 
	C115.672234,149.083206 76.237480,162.006287 38.523357,179.550201 
	C27.843004,184.518509 16.441557,187.953857 6.501259,194.501907 
	C4.914814,195.546982 3.156322,194.729889 1.500000,195.000000 
"/>
<path fill="none" opacity="1.000000" stroke="#000000" stroke-linecap="round" stroke-linejoin="round" stroke-width="6.000000"
	d="
M1056.500000,289.500000 
	C1054.541138,289.134338 1053.384521,290.477417 1051.982788,291.475739 
	C1033.815063,304.414246 1015.399780,317.020477 998.041870,331.051788 
	C993.736206,334.532318 988.989624,337.565125 985.507690,342.006012 
	C985.282349,342.293365 985.199219,342.936615 984.995300,342.961182 
	C975.616760,344.091187 971.463379,352.441467 965.075623,357.593781 
	C947.258179,371.965088 932.452209,389.177856 919.527832,408.019104 
	C917.238037,411.357147 915.449341,414.982666 914.473999,418.993683 
	C912.834717,425.734955 916.938477,430.087524 923.502625,428.510803 
	C934.267517,425.925049 944.134033,421.486206 953.558716,415.593933 
	C970.453308,405.031494 982.577209,390.554382 990.373779,372.445648 
	C992.225220,368.145569 993.142700,363.193268 993.337280,358.493256 
	C993.580444,352.619232 990.983948,347.548523 986.000000,344.000000 
"/>
<path fill="none" opacity="1.000000" stroke="#000000" stroke-linecap="round" stroke-linejoin="round" stroke-width="9.000000"
	d="
M468.500000,294.000000 
	C466.533356,297.300018 464.923737,300.785919 464.040375,304.509583 
	C462.723358,310.060913 459.390045,314.723907 457.537170,320.013031 
	C456.493866,322.991180 453.160339,322.091095 451.348328,324.379913 
	C444.903351,332.520691 437.765228,340.108551 431.017975,348.015350 
	C423.322266,357.033661 415.158661,365.556915 405.486267,372.480804 
	C395.573273,379.576996 387.198608,374.930084 382.882599,366.057098 
	C377.438629,354.865265 374.641144,342.944946 372.107849,330.977173 
	C368.891235,315.781250 365.967499,300.525848 361.966766,285.508850 
	C361.372559,283.278503 360.630859,280.983551 359.434753,279.040161 
	C357.295990,275.565033 353.400818,275.621552 350.512482,279.010651 
	C346.064270,284.230011 344.424866,290.820496 342.026520,297.010284 
	C329.631439,329.000336 321.003937,362.106659 313.677795,395.538971 
	C311.873932,403.770905 310.423218,412.154083 308.882690,420.478302 
	C308.229736,424.006470 307.904816,428.014130 304.504242,430.505798 
	C302.675964,431.845490 303.787079,433.824097 303.500000,435.500000 
"/>
<path fill="none" opacity="1.000000" stroke="#000000" stroke-linecap="round" stroke-linejoin="round" stroke-width="8.000000"
	d="
M797.500000,289.500000 
	C792.757446,291.336243 790.596436,295.589417 787.977661,299.484955 
	C777.197693,315.520844 766.742737,331.799652 755.337402,347.381012 
	C749.077820,355.932556 742.645569,364.515350 734.991028,371.990814 
	C733.050903,373.885498 731.045532,375.719757 728.987427,377.485352 
	C726.839783,379.327789 723.917297,380.546661 721.593140,379.323059 
	C718.855530,377.881836 718.769104,374.673157 718.916809,371.496124 
	C719.587708,357.065155 724.018372,343.663849 729.479370,330.491425 
	C730.862549,327.154938 731.777954,323.682556 731.000000,320.000000 
"/>
<path fill="none" opacity="1.000000" stroke="#000000" stroke-linecap="round" stroke-linejoin="round" stroke-width="8.000000"
	d="
M1856.500000,279.000000 
	C1852.001587,280.170959 1847.652466,286.984802 1848.489258,291.501984 
	C1848.665527,292.453003 1848.855347,292.956909 1849.941284,293.599304 
	C1861.777344,300.600555 1867.661377,311.996002 1871.403931,324.528687 
	C1875.288330,337.535614 1866.908203,357.244781 1855.500000,363.500031 
	C1850.002563,366.514343 1845.538452,364.680908 1842.423828,359.042084 
	C1837.913818,350.877380 1838.818970,342.108734 1839.102417,333.503387 
	C1839.555054,319.763458 1842.279541,306.432220 1848.500000,294.000000 
"/>
<path fill="none" opacity="1.000000" stroke="#000000" stroke-linecap="round" stroke-linejoin="round" stroke-width="9.000000"
	d="
M533.250000,455.500000 
	C533.274719,441.975861 533.346130,428.454651 534.986328,414.998322 
	C535.210876,413.156036 535.023499,411.402161 533.511780,409.987396 
	C530.597229,407.259552 530.746338,403.449036 530.577148,399.996216 
	C529.891479,386.005310 529.829346,371.978638 528.923401,358.004974 
	C527.539856,336.665039 527.361450,315.250916 524.638550,293.982269 
	C523.806396,287.481934 523.317932,280.956238 522.145447,274.473694 
	C521.549011,271.175812 520.000671,269.190033 517.500000,267.500000 
"/>
<path fill="none" opacity="1.000000" stroke="#000000" stroke-linecap="round" stroke-linejoin="round" stroke-width="6.000000"
	d="
M1548.500000,320.000000 
	C1560.776489,317.689819 1566.025513,307.409882 1571.818726,298.383667 
	C1577.525024,289.493164 1582.261108,279.853394 1584.929077,269.481750 
	C1586.027832,265.210968 1586.434570,260.847961 1583.042114,256.963226 
	C1578.350830,251.591446 1574.516113,250.596573 1568.511353,257.509888 
	C1563.237305,263.581970 1559.691528,270.707031 1556.520874,278.009033 
	C1551.583862,289.378632 1548.979126,301.432800 1546.553223,313.510681 
	C1545.864380,316.940704 1548.549927,320.504242 1546.497314,323.998413 
	C1545.265991,326.094299 1545.059204,329.034546 1541.503052,329.123779 
	C1540.482788,329.149353 1539.438110,330.603271 1538.509644,331.509857 
	C1529.993286,339.826385 1521.262695,347.940155 1513.050049,356.547638 
	C1496.526001,373.866211 1479.772705,390.980957 1464.084473,409.073273 
	C1462.274902,411.160156 1460.517212,412.034302 1458.000000,412.000000 
"/>
<path fill="none" opacity="1.000000" stroke="#000000" stroke-linecap="round" stroke-linejoin="round" stroke-width="9.000000"
	d="
M1475.500000,193.000000 
	C1470.837036,192.733505 1466.153687,192.063156 1462.064209,189.879837 
	C1459.182129,188.341232 1457.224976,189.224976 1455.556763,191.051865 
	C1452.684570,194.197586 1450.218018,197.709274 1447.491821,200.993210 
	C1428.152344,224.289719 1407.339111,246.087585 1384.085815,265.602295 
	C1368.317627,278.835388 1351.945435,291.115417 1334.501221,302.001923 
	C1333.991577,302.319916 1333.291504,302.550507 1333.031372,303.017456 
	C1329.414673,309.510040 1322.579956,310.447510 1316.481567,312.443878 
	C1306.514404,315.706818 1296.745850,319.612915 1286.493286,321.970886 
	C1285.878418,322.112305 1285.166626,321.833313 1284.500000,321.750000 
"/>
<path fill="none" opacity="1.000000" stroke="#000000" stroke-linecap="round" stroke-linejoin="round" stroke-width="8.000000"
	d="
M1649.500000,268.500000 
	C1643.466187,270.282959 1641.823242,276.102600 1639.119385,280.572205 
	C1623.689087,306.078644 1605.713379,329.544403 1584.484497,350.484222 
	C1578.536865,356.350891 1571.565674,360.623627 1563.500000,363.000000 
"/>
<path fill="none" opacity="1.000000" stroke="#000000" stroke-linecap="round" stroke-linejoin="round" stroke-width="8.000000"
	d="
M476.500000,279.000000 
	C471.463531,280.261780 467.217529,287.407501 468.378998,292.030396 
	C468.683899,293.243866 469.344696,293.557159 470.018127,293.970428 
	C481.686218,301.131042 487.739258,311.884460 490.555084,324.988159 
	C493.473999,338.571411 488.171082,354.170776 477.500000,362.000000 
	C470.876373,366.859619 465.010101,365.437500 461.517029,357.992004 
	C457.851105,350.178101 458.078125,341.753815 458.685913,333.513702 
	C458.992432,329.357758 458.622650,325.686890 457.000000,322.000000 
"/>
<path fill="none" opacity="1.000000" stroke="#000000" stroke-linecap="round" stroke-linejoin="round" stroke-width="4.000000"
	d="
M887.000000,321.000000 
	C891.356140,321.999908 894.007507,325.787781 897.955994,327.596039 
	C904.694641,330.682007 911.921997,331.228851 919.009644,332.443878 
	C929.973145,334.323395 940.972290,336.058105 952.010010,337.419006 
	C959.077942,338.290436 966.036316,339.620514 972.996826,341.015778 
	C974.983337,341.413940 977.156128,341.628693 978.000000,344.000000 
"/>
<path fill="none" opacity="1.000000" stroke="#000000" stroke-linecap="round" stroke-linejoin="round" stroke-width="7.000000"
	d="
M1744.000000,412.000000 
	C1747.640625,410.093750 1748.999268,407.075348 1750.186035,403.054932 
	C1756.101318,383.016663 1766.663330,365.348083 1779.521606,349.017059 
	C1785.089478,341.945557 1791.263428,335.422455 1798.513672,330.018280 
	C1800.720581,328.373260 1803.154297,326.482788 1805.966309,328.545929 
	C1808.981812,330.758240 1808.588257,333.626007 1807.600464,337.029144 
	C1804.112915,349.045044 1796.931396,359.044495 1789.843384,368.887207 
	C1780.317383,382.115692 1769.571167,394.435669 1758.080566,406.079529 
	C1755.387817,408.808136 1753.034058,408.959137 1750.000000,407.500000 
"/>
<path fill="none" opacity="1.000000" stroke="#000000" stroke-linecap="round" stroke-linejoin="round" stroke-width="6.000000"
	d="
M1207.000000,122.500000 
	C1209.171387,140.954834 1208.347534,159.490723 1208.495361,178.000031 
	C1208.527344,181.999786 1208.641846,186.006653 1208.454468,189.997864 
	C1208.307983,193.118622 1209.007568,195.789062 1211.250000,198.000000 
"/>
<path fill="none" opacity="1.000000" stroke="#000000" stroke-linecap="round" stroke-linejoin="round" stroke-width="7.000000"
	d="
M1206.500000,207.000000 
	C1199.979614,208.850220 1196.235840,214.471909 1191.635010,218.648727 
	C1176.278687,232.589584 1161.500000,247.166656 1146.500000,261.500000 
"/>
<path fill="none" opacity="1.000000" stroke="#000000" stroke-linecap="round" stroke-linejoin="round" stroke-width="8.000000"
	d="
M1209.500000,475.500000 
	C1210.182251,477.269897 1210.524780,479.059998 1210.540771,480.999664 
	C1210.616089,490.167084 1210.733398,499.336945 1211.062134,508.497772 
	C1211.158325,511.178925 1212.000000,513.833313 1212.500000,516.500000 
"/>
<path fill="none" opacity="1.000000" stroke="#000000" stroke-linecap="round" stroke-linejoin="round" stroke-width="6.000000"
	d="
M1544.000000,329.000000 
	C1546.722778,332.935760 1546.536743,337.620270 1546.873291,342.009705 
	C1547.298584,347.558075 1549.655029,352.279602 1552.092651,356.951691 
	C1553.942261,360.497040 1556.828247,363.247131 1561.501343,362.508698 
	C1563.008423,362.270599 1563.646362,363.020355 1563.500000,364.500000 
"/>
<path fill="none" opacity="1.000000" stroke="#000000" stroke-linecap="round" stroke-linejoin="round" stroke-width="5.000000"
	d="
M1724.000000,260.500000 
	C1720.504395,260.773773 1717.336670,261.465881 1714.417603,263.901215 
	C1711.107788,266.662292 1707.166748,268.666718 1703.500000,271.000031 
"/>
</svg>